<svg width="14" height="18" viewBox="0 0 14 18" fill="none" xmlns="http://www.w3.org/2000/svg">
<path fill-rule="evenodd" clip-rule="evenodd" d="M2.26667 1.14761C5.41166 0.782502 8.58834 0.782502 11.7333 1.14761C12.9808 1.29261 13.875 2.36428 13.875 3.58928V16.5001C13.8749 16.6065 13.8475 16.7112 13.7956 16.8041C13.7437 16.897 13.6689 16.9751 13.5784 17.031C13.4878 17.087 13.3845 17.1188 13.2782 17.1236C13.1718 17.1284 13.0661 17.106 12.9708 17.0584L7 14.0743L1.02917 17.0601C0.933817 17.1077 0.827879 17.1301 0.721418 17.1253C0.614958 17.1204 0.511512 17.0884 0.42091 17.0323C0.330308 16.9762 0.25556 16.8978 0.203769 16.8047C0.151977 16.7115 0.124862 16.6067 0.125001 16.5001V3.58928C0.125001 2.36428 1.01917 1.29261 2.26667 1.14761Z" fill="#747474"/>
</svg>
