<svg width="23" height="27" viewBox="0 0 23 27" fill="none" xmlns="http://www.w3.org/2000/svg">
<path fill-rule="evenodd" clip-rule="evenodd" d="M4.16333 1.32874C9.03808 0.762816 13.9619 0.762816 18.8367 1.32874C20.7703 1.55349 22.1562 3.21457 22.1562 5.11332V25.1251C22.156 25.2901 22.1137 25.4523 22.0332 25.5963C21.9528 25.7403 21.8369 25.8614 21.6965 25.9481C21.5561 26.0347 21.396 26.0841 21.2312 26.0916C21.0664 26.099 20.9024 26.0642 20.7548 25.9905L11.5 21.3651L2.24521 25.9931C2.09742 26.0669 1.93321 26.1017 1.7682 26.0941C1.60319 26.0866 1.44284 26.0369 1.30241 25.95C1.16198 25.863 1.04612 25.7415 0.965841 25.5972C0.885564 25.4528 0.843536 25.2903 0.843751 25.1251V5.11332C0.843751 3.21457 2.22971 1.55349 4.16333 1.32874Z" fill="#00308F"/>
</svg>
